<svg width="121" height="34" viewBox="0 0 121 34" fill="none" xmlns="http://www.w3.org/2000/svg">
<path d="M43.7651 24V11.4H46.2491V21.516H51.3251V24H43.7651ZM53.31 24L55.758 11.4H57.855L60.78 19.113L63.714 11.4H65.811L68.259 24H65.721L64.326 16.773L61.635 23.874H59.925L57.243 16.773L55.839 24H53.31ZM74.9945 24.234C74.2865 24.234 73.6085 24.123 72.9605 23.901C72.3185 23.679 71.7545 23.358 71.2685 22.938C70.7885 22.518 70.4435 22.02 70.2335 21.444L72.5645 20.58C72.6365 20.784 72.7865 20.976 73.0145 21.156C73.2425 21.33 73.5275 21.474 73.8695 21.588C74.2115 21.696 74.5865 21.75 74.9945 21.75C75.3845 21.75 75.7505 21.693 76.0925 21.579C76.4405 21.459 76.7195 21.294 76.9295 21.084C77.1455 20.874 77.2535 20.628 77.2535 20.346C77.2535 20.064 77.1425 19.83 76.9205 19.644C76.6985 19.458 76.4135 19.311 76.0655 19.203C75.7175 19.089 75.3605 19.002 74.9945 18.942C74.0885 18.81 73.2755 18.597 72.5555 18.303C71.8415 18.003 71.2775 17.592 70.8635 17.07C70.4495 16.542 70.2425 15.873 70.2425 15.063C70.2425 14.283 70.4615 13.602 70.8995 13.02C71.3435 12.438 71.9255 11.985 72.6455 11.661C73.3715 11.337 74.1545 11.175 74.9945 11.175C75.6905 11.175 76.3625 11.286 77.0105 11.508C77.6585 11.73 78.2225 12.051 78.7025 12.471C79.1885 12.891 79.5365 13.395 79.7465 13.983L77.4155 14.829C77.3435 14.625 77.1935 14.436 76.9655 14.262C76.7375 14.088 76.4525 13.947 76.1105 13.839C75.7685 13.731 75.3965 13.677 74.9945 13.677C74.6105 13.671 74.2445 13.728 73.8965 13.848C73.5545 13.968 73.2725 14.133 73.0505 14.343C72.8345 14.553 72.7265 14.793 72.7265 15.063C72.7265 15.417 72.8285 15.684 73.0325 15.864C73.2425 16.044 73.5185 16.173 73.8605 16.251C74.2025 16.329 74.5805 16.398 74.9945 16.458C75.8465 16.584 76.6325 16.809 77.3525 17.133C78.0725 17.451 78.6485 17.877 79.0805 18.411C79.5185 18.939 79.7375 19.584 79.7375 20.346C79.7375 21.126 79.5185 21.807 79.0805 22.389C78.6425 22.971 78.0635 23.424 77.3435 23.748C76.6235 24.072 75.8405 24.234 74.9945 24.234ZM93.33 11.4H95.814V24H93.33V18.492H88.542V24H86.058V11.4H88.542V16.008H93.33V11.4ZM103.07 24.234C102.062 24.234 101.174 23.988 100.406 23.496C99.644 23.004 99.047 22.344 98.615 21.516C98.189 20.682 97.976 19.758 97.976 18.744V11.4H100.46V18.744C100.46 19.29 100.562 19.791 100.766 20.247C100.97 20.703 101.267 21.069 101.657 21.345C102.047 21.615 102.518 21.75 103.07 21.75C103.628 21.75 104.099 21.615 104.483 21.345C104.873 21.075 105.167 20.712 105.365 20.256C105.563 19.8 105.662 19.296 105.662 18.744V11.4H108.146V18.744C108.146 19.506 108.023 20.22 107.777 20.886C107.537 21.546 107.192 22.128 106.742 22.632C106.292 23.136 105.755 23.529 105.131 23.811C104.513 24.093 103.826 24.234 103.07 24.234ZM110.052 24V11.4H114.741C115.419 11.4 116.034 11.541 116.586 11.823C117.138 12.099 117.573 12.495 117.891 13.011C118.215 13.527 118.377 14.133 118.377 14.829C118.377 15.111 118.338 15.402 118.26 15.702C118.188 16.002 118.062 16.278 117.882 16.53C117.708 16.782 117.468 16.974 117.162 17.106C117.558 17.202 117.876 17.382 118.116 17.646C118.356 17.904 118.539 18.204 118.665 18.546C118.791 18.882 118.875 19.227 118.917 19.581C118.959 19.935 118.98 20.256 118.98 20.544C118.98 21.192 118.812 21.777 118.476 22.299C118.14 22.821 117.687 23.235 117.117 23.541C116.553 23.847 115.929 24 115.245 24H110.052ZM112.536 21.885H114.984C115.314 21.885 115.614 21.807 115.884 21.651C116.154 21.489 116.37 21.27 116.532 20.994C116.694 20.712 116.775 20.394 116.775 20.04C116.775 19.74 116.694 19.455 116.532 19.185C116.37 18.915 116.154 18.696 115.884 18.528C115.614 18.354 115.314 18.267 114.984 18.267H112.536V21.885ZM112.536 16.197H114.453C114.849 16.197 115.188 16.068 115.47 15.81C115.752 15.552 115.893 15.219 115.893 14.811C115.893 14.391 115.752 14.073 115.47 13.857C115.188 13.635 114.849 13.524 114.453 13.524H112.536V16.197Z" fill="white"/>
<rect width="34" height="34" fill="#5F71FA"/>
<path d="M11 9H13.2177C14.9196 9 16.2992 10.3796 16.2992 12.0815V25H14.0815C12.3796 25 11 23.6204 11 21.9185V9Z" fill="white"/>
<path d="M18.0612 21.4606C18.0612 20.5033 18.8373 19.7273 19.7946 19.7273H24V23.2667C24 24.224 23.224 25 22.2667 25H18.0612V21.4606Z" fill="white"/>
</svg>
